<?xml version="1.0" encoding="utf-8"?>
<!-- Generator: Adobe Illustrator 19.1.0, SVG Export Plug-In . SVG Version: 6.00 Build 0)  -->
<svg version="1.1" id="Layer_1" xmlns="http://www.w3.org/2000/svg" xmlns:xlink="http://www.w3.org/1999/xlink" x="0px" y="0px"
	 viewBox="-21 23 20 20" style="enable-background:new -21 23 20 20;" xml:space="preserve">
<style type="text/css">
	.st0{fill:#FFFFFF;}
</style>
<path class="st0" d="M-11,25c1.1,0,2.1,0.2,3.1,0.6s1.8,1,2.6,1.7c0.7,0.7,1.3,1.6,1.7,2.5c0.4,1,0.6,2,0.6,3.1s-0.2,2.1-0.6,3.1
	c-0.4,1-1,1.8-1.7,2.5s-1.6,1.3-2.6,1.7S-9.9,41-11,41s-2.1-0.2-3.1-0.6s-1.8-1-2.6-1.7s-1.3-1.6-1.7-2.5s-0.6-2-0.6-3.1
	s0.2-2.1,0.6-3.1c0.4-1,1-1.8,1.7-2.5s1.6-1.3,2.6-1.7S-12.1,25-11,25z M-11,39c1.1,0,2.1-0.3,3-0.8s1.6-1.3,2.2-2.2
	c0.5-0.9,0.8-1.9,0.8-3s-0.3-2.1-0.8-3s-1.3-1.6-2.2-2.2c-0.9-0.5-1.9-0.8-3-0.8s-2.1,0.3-3,0.8c-0.9,0.5-1.6,1.3-2.2,2.2
	s-0.8,1.9-0.8,3s0.3,2.1,0.8,3c0.5,0.9,1.3,1.6,2.2,2.2S-12.1,39-11,39z M-11.7,33.7c0.1,0.1,0.2,0.1,0.2,0.2l0,0L-7,36l-3-3.2
	l-1-4.8l-1,4.8h0c0,0,0,0,0,0.1c0,0.1,0,0.1,0,0.1C-12,33.3-11.9,33.5-11.7,33.7z"/>
</svg>
